<?xml version="1.0" encoding="UTF-8"?><svg id="Layer_1" xmlns="http://www.w3.org/2000/svg" viewBox="0 0 422.92 93.31"><defs><style>.cls-1{fill:#fff;}.cls-2{fill:#f25621;}</style></defs><path class="cls-2" d="M273.25,52.46h-12.05v-18.67c0-.38-.31-.69-.69-.69h-7.68c-.38,0-.69,.31-.69,.69v25.72c0,.38,.31,.69,.69,.69h20.42c.38,0,.69-.31,.69-.69v-6.37c0-.38-.31-.69-.69-.69m87.19-9.1c0,1.66-1.32,2.63-3.48,2.63h-3.91v-5.3h3.95c2.09,0,3.44,.85,3.44,2.59v.08Zm4.11,8.26c-.23-.33-.12-.79,.23-.98,2.9-1.63,4.68-4.26,4.68-7.94v-.08c0-2.79-.85-4.8-2.48-6.42-1.9-1.9-4.95-3.1-9.75-3.1h-12.55c-.38,0-.69,.31-.69,.69v25.72c0,.38,.31,.69,.69,.69h7.68c.38,0,.69-.31,.69-.69v-7.05h1.93l4.91,7.43c.13,.19,.34,.31,.57,.31h8.66c.55,0,.88-.62,.57-1.07l-5.14-7.5Zm-31.98-4.89c0,3.17-2.17,6.04-5.61,6.04s-5.69-2.9-5.69-6.11v-.08c0-3.17,2.17-6.04,5.61-6.04s5.69,2.9,5.69,6.12v.08Zm-5.61-14.2c-8.36,0-14.82,6.27-14.82,14.13v.08c0,7.86,6.39,14.05,14.75,14.05s14.82-6.27,14.82-14.13v-.08c0-7.86-6.39-14.05-14.75-14.05m-77.94,20.24h-13.71v-.68h0v-1.57h0v-.69h12.55c.38,0,.69-.31,.69-.69v-5.17c0-.38-.31-.69-.69-.69h-12.55v-.68h0v-1.38h0v-.69h13.52c.38,0,.69-.31,.69-.69v-6.06c0-.38-.31-.69-.69-.69h-21.74c-.38,0-.69,.31-.69,.69v25.72c0,.38,.31,.69,.69,.69h21.93c.38,0,.69-.31,.69-.69v-6.06c0-.38-.31-.69-.69-.69m144.52-.31h-12.05v-18.67c0-.38-.31-.69-.69-.69h-7.68c-.38,0-.69,.31-.69,.69v25.72c0,.38,.31,.69,.69,.69h20.42c.38,0,.69-.31,.69-.69v-6.37c0-.38-.31-.69-.69-.69m-81.15-19.35h-7.87c-.31,0-.57,.2-.66,.49l-3.07,10.42c-.19,.64-1.1,.66-1.31,.02l-3.52-10.54c-.09-.28-.36-.47-.65-.47h-6.83c-.3,0-.56,.19-.65,.47l-3.53,10.54c-.21,.64-1.12,.62-1.31-.02l-3.07-10.42c-.09-.29-.35-.49-.66-.49h-8.02c-.47,0-.8,.45-.65,.9l8.42,25.92c.09,.28,.36,.47,.65,.47h6.91c.29,0,.55-.18,.65-.46l3.95-11.18c.22-.61,1.08-.61,1.29,0l3.95,11.18c.1,.27,.36,.46,.65,.46h6.91c.3,0,.56-.19,.65-.47l8.42-25.92c.14-.44-.19-.9-.65-.9m-174.26,0h-7.68c-.38,0-.69,.31-.69,.69v8.87h-8.28v-8.87c0-.38-.31-.69-.69-.69h-7.68c-.38,0-.69,.31-.69,.69v25.72c0,.38,.31,.69,.69,.69h7.68c.38,0,.69-.31,.69-.69v-9.03h8.28v9.03c0,.38,.31,.69,.69,.69h7.68c.38,0,.69-.31,.69-.69v-25.72c0-.38-.31-.69-.69-.69m275.64,13.58c0,3.91-2.67,5.61-6.81,5.61h-1.51v-11.3h1.51c4.14,0,6.81,1.7,6.81,5.61v.08Zm-7.01-13.58h-9.69c-.38,0-.69,.31-.69,.69v25.72c0,.38,.31,.69,.69,.69h9.38c10.95,0,16.45-5.69,16.45-13.7v-.08c0-8.01-5.38-13.31-16.14-13.31m-221.2,9.6c-2.86-.54-3.6-1.01-3.6-1.74v-.08c0-.66,.62-1.12,1.97-1.12,2.35,0,5.16,.71,7.6,2.3,.3,.2,.71,.12,.92-.18l3.63-5.03c.23-.31,.15-.74-.16-.97-3.03-2.2-6.75-3.29-11.67-3.29-7.47,0-11.5,3.99-11.5,9.13v.08c0,5.73,5.34,7.47,11.42,8.71,2.9,.58,3.75,1.01,3.75,1.78v.08c0,.74-.7,1.16-2.32,1.16-3,0-6.17-.83-8.99-2.81-.29-.2-.68-.14-.91,.13l-3.98,4.75c-.25,.3-.2,.74,.1,.98,3.41,2.72,8.14,4.11,13.35,4.11,7.28,0,11.96-3.48,11.96-9.17v-.08c0-5.46-4.64-7.47-11.57-8.75m37.32-9.6h-23.63c-.38,0-.69,.31-.69,.69v6.29c0,.38,.31,.69,.69,.69h7.29v18.74c0,.38,.31,.69,.69,.69h7.68c.38,0,.69-.31,.69-.69v-18.74h7.29c.38,0,.69-.31,.69-.69v-6.29c0-.38-.31-.69-.69-.69m-61.16,13.62c0,3.17-2.17,6.04-5.61,6.04s-5.69-2.9-5.69-6.11v-.08c0-3.17,2.17-6.04,5.61-6.04s5.69,2.9,5.69,6.12v.08Zm-5.61-14.2c-8.36,0-14.82,6.27-14.82,14.13v.08c0,7.86,6.39,14.05,14.75,14.05s14.82-6.27,14.82-14.13v-.08c0-7.86-6.39-14.05-14.75-14.05"/><rect class="cls-2" width="93.31" height="93.31" rx="12.98" ry="12.98"/><path class="cls-1" d="M77.2,14.84h-18.67c-.69,0-1.25,.56-1.25,1.25v16.69h2.08c.3,.02,.54,.26,.54,.57,0,.13-.05,.24-.12,.34l-11.95,12.18c-.19,.23-.29,.52-.29,.8,0,.28,.1,.57,.29,.8l11.95,12.18c.07,.09,.12,.21,.12,.34,0,.3-.24,.55-.54,.57h-2.08v16.69c0,.69,.56,1.25,1.25,1.25h18.67c.69,0,1.25-.56,1.25-1.25V16.09c0-.69-.56-1.25-1.25-1.25m-43.57,18.91h0c-.1-.11-.17-.25-.17-.41,0-.3,.24-.55,.54-.57h2.06V16.09c0-.69-.56-1.25-1.25-1.25H16.11c-.69,0-1.25,.56-1.25,1.25v61.13c0,.69,.56,1.25,1.25,1.25h18.71c.69,0,1.25-.56,1.25-1.25v-16.69h-2.06c-.3-.02-.54-.26-.54-.57,0-.16,.06-.3,.17-.4h0l11.89-12.12c.19-.23,.28-.51,.28-.79s-.09-.56-.28-.79l-11.89-12.11Z"/></svg>