<svg width="32" height="30" viewBox="0 0 32 30" fill="none" xmlns="http://www.w3.org/2000/svg">
<path d="M30.4 16.0668H29.8667V4.86677C29.8667 2.20008 27.7334 0.0667725 25.0667 0.0667725C22.7061 0.0667725 21.0082 1.81715 20.8183 4.38183C19.579 4.61608 18.6667 5.68346 18.6667 7.00008C18.6667 7.32008 18.88 7.5334 19.2 7.5334H23.4667C23.7867 7.5334 24 7.32008 24 7.00008C24 5.69802 23.1079 4.63952 21.8896 4.38965C22.0489 2.6949 23.0668 1.1334 25.0667 1.1334C27.1467 1.1334 28.8 2.78671 28.8 4.86671V16.0667H12.7484C12.5072 14.8366 11.4436 13.9334 10.1334 13.9334C9.60006 13.2934 8.85338 12.8667 8.00006 12.8667C6.98675 12.8667 6.08006 13.4534 5.65338 14.3067C5.22669 14.0934 4.74669 13.9334 4.26669 13.9334C2.9565 13.9334 1.89288 14.8366 1.65163 16.0667H1.6C0.693313 16.0667 0 16.76 0 17.6667C0 18.5734 0.693313 19.2667 1.6 19.2667H2.24094L3.68 24.9734C4.10669 26.6267 5.6 27.8001 7.30669 27.8001H7.73338L7.04006 29.1868C6.88006 29.4535 6.98675 29.7735 7.25338 29.8801C7.30669 29.9334 7.41338 29.9334 7.46669 29.9334C7.68 29.9334 7.84 29.8267 7.94669 29.6667L8.88 27.8001H23.68L24.5867 29.6134C24.6934 29.8267 24.8534 29.9334 25.0667 29.9334C25.1734 29.9334 25.2267 29.9334 25.28 29.8267C25.4933 29.72 25.6 29.4 25.4933 29.1334L24.8253 27.7972C26.4764 27.7386 27.9044 26.5853 28.32 25.0267L29.7725 19.2667H30.4C31.3067 19.2667 32 18.5734 32 17.6667C32 16.7601 31.3067 16.0668 30.4 16.0668ZM22.88 6.46677H19.84C20.0533 5.82677 20.6933 5.40008 21.3867 5.40008C22.0801 5.40008 22.6667 5.82677 22.88 6.46677ZM4.26669 15.0001C4.74669 15.0001 5.17338 15.2134 5.54669 15.5868C5.65338 15.7468 5.86669 15.8001 6.08 15.7468C6.29331 15.6935 6.4 15.5335 6.45331 15.3201C6.61331 14.5201 7.25331 13.9334 8.05331 13.9334C8.64 13.9334 9.17331 14.2001 9.44 14.7334C9.54669 14.9467 9.81331 15.0534 10.0267 15.0001C10.08 15.0001 10.1334 15.0001 10.1867 15.0001C10.88 15.0001 11.4667 15.4268 11.68 16.0668H2.77331C2.98669 15.4268 3.57331 15.0001 4.26669 15.0001ZM27.36 24.7068C27.04 25.8801 25.9733 26.7335 24.7467 26.7335H7.36C6.13331 26.7335 5.06669 25.8801 4.74669 24.7068L3.36 19.2668H28.64L27.36 24.7068ZM30.4 18.2001H29.3333H2.66669H1.6C1.28 18.2001 1.06669 17.9868 1.06669 17.6668C1.06669 17.3468 1.28 17.1335 1.6 17.1335H2.13331H12.2666H30.4C30.72 17.1335 30.9333 17.3468 30.9333 17.6668C30.9333 17.9868 30.72 18.2001 30.4 18.2001Z" fill="#063C43"/>
<path d="M19.1998 9.93341C19.5198 9.93341 19.7331 9.7201 19.7331 9.4001V9.13341C19.7331 8.81341 19.5198 8.6001 19.1998 8.6001C18.8798 8.6001 18.6665 8.81341 18.6665 9.13341V9.4001C18.6665 9.7201 18.8798 9.93341 19.1998 9.93341Z" fill="#063C43"/>
<path d="M19.1998 12.3868C19.5198 12.3868 19.7331 12.1201 19.7331 11.8535V11.2668C19.7331 10.9468 19.5198 10.7335 19.1998 10.7335C18.8798 10.7335 18.6665 10.9468 18.6665 11.2668V11.8535C18.6665 12.1734 18.8798 12.3868 19.1998 12.3868Z" fill="#063C43"/>
<path d="M19.1998 14.4669C19.5198 14.4669 19.7331 14.2535 19.7331 13.9335V13.6669C19.7331 13.3469 19.5198 13.1335 19.1998 13.1335C18.8798 13.1335 18.6665 13.3469 18.6665 13.6669V13.9335C18.6665 14.2535 18.8798 14.4669 19.1998 14.4669Z" fill="#063C43"/>
<path d="M21.3336 9.93341C21.6536 9.93341 21.8669 9.7201 21.8669 9.4001V9.13341C21.8669 8.81341 21.6536 8.6001 21.3336 8.6001C21.0136 8.6001 20.8003 8.81341 20.8003 9.13341V9.4001C20.8003 9.7201 21.0136 9.93341 21.3336 9.93341Z" fill="#063C43"/>
<path d="M20.8003 11.8533C20.8003 12.1733 21.0136 12.3867 21.3336 12.3867C21.6536 12.3867 21.8669 12.12 21.8669 11.8533V11.2667C21.8669 10.9467 21.6536 10.7333 21.3336 10.7333C21.0136 10.7333 20.8003 10.9467 20.8003 11.2667V11.8533Z" fill="#063C43"/>
<path d="M20.8003 13.9334C20.8003 14.2534 21.0136 14.4667 21.3336 14.4667C21.6536 14.4667 21.8669 14.2534 21.8669 13.9334V13.6667C21.8669 13.3467 21.6536 13.1334 21.3336 13.1334C21.0136 13.1334 20.8003 13.3467 20.8003 13.6667V13.9334Z" fill="#063C43"/>
<path d="M23.4669 9.93341C23.7869 9.93341 24.0002 9.7201 24.0002 9.4001V9.13341C24.0002 8.81341 23.7869 8.6001 23.4669 8.6001C23.1469 8.6001 22.9336 8.81341 22.9336 9.13341V9.4001C22.9335 9.7201 23.1469 9.93341 23.4669 9.93341Z" fill="#063C43"/>
<path d="M22.9336 11.8533C22.9336 12.1733 23.1469 12.3867 23.4669 12.3867C23.7869 12.3867 24.0003 12.12 24.0003 11.8533V11.2667C24.0003 10.9467 23.787 10.7333 23.467 10.7333C23.147 10.7333 22.9337 10.9467 22.9337 11.2667V11.8533H22.9336Z" fill="#063C43"/>
<path d="M22.9336 13.9334C22.9336 14.2534 23.1469 14.4667 23.4669 14.4667C23.7869 14.4667 24.0002 14.2534 24.0002 13.9334V13.6667C24.0002 13.3467 23.7869 13.1334 23.4669 13.1334C23.1469 13.1334 22.9336 13.3467 22.9336 13.6667V13.9334Z" fill="#063C43"/>
</svg>
