<svg xmlns="http://www.w3.org/2000/svg" width="24px" height="24px" viewBox="0 0 24 24" role="presentation"><g transform="translate(2 2)"><path d="M13.12,19.446C8.83,17.655,2.275,11.231.543,6.974-.176,5.389-.182,4.082.531,3.1.815,2.639,2.433.713,3.882.774a1.863,1.863,0,0,1,1.128.59A13.212,13.212,0,0,1,7.258,4.486a2.233,2.233,0,0,1-.422,1.62c-.267.468-.982,1.354-.8,1.871a11.491,11.491,0,0,0,6.093,5.92c.506.184,1.391-.53,1.857-.8a2.211,2.211,0,0,1,1.616-.424,13.422,13.422,0,0,1,3.112,2.293,1.856,1.856,0,0,1,.585,1.121c.054,1.482-1.96,3.174-2.327,3.385a2.822,2.822,0,0,1-1.69.527A5.191,5.191,0,0,1,13.12,19.446ZM14.835,7.931h0a3.461,3.461,0,0,0-2.743-2.75.86.86,0,0,1,.327-1.689,5.175,5.175,0,0,1,4.1,4.11.865.865,0,0,1-.678,1.011.945.945,0,0,1-.166.015A.86.86,0,0,1,14.835,7.931Zm3.456-.075a6.912,6.912,0,0,0-6.126-6.138A.863.863,0,0,1,11.731.184a.818.818,0,0,1,.625-.176,8.617,8.617,0,0,1,7.638,7.656.857.857,0,0,1-.756.95.705.705,0,0,1-.1.006A.856.856,0,0,1,18.291,7.856Z" transform="translate(0 0)" fill="currentColor"></path></g></svg>