<svg width="20" height="20" viewBox="0 0 20 20" fill="currentColor">
<g clip-path="url(#clip0_737_4127)">
<path d="M10.3574 19.9881C11.8868 19.7708 13.2276 18.1745 14.0712 15.8172C12.8516 15.544 11.607 15.3974 10.3574 15.38V19.9881Z" fill="currentColor"/>
<path d="M12.8009 19.6133C12.8913 19.5871 12.9814 19.5608 13.0707 19.5318C13.1461 19.5076 13.2205 19.4814 13.2948 19.4554C13.3828 19.425 13.4704 19.3938 13.5577 19.3606C13.632 19.3323 13.7057 19.3023 13.7795 19.2723C13.8647 19.2365 13.9496 19.2009 14.0338 19.1651C14.1072 19.1328 14.1802 19.099 14.2532 19.065C14.3357 19.026 14.4179 18.9864 14.4994 18.9452C14.571 18.9087 14.6424 18.8716 14.7139 18.8334C14.794 18.7904 14.8736 18.7466 14.9527 18.7016C15.0242 18.6611 15.0932 18.6204 15.1628 18.5785C15.2403 18.5309 15.3174 18.4832 15.3941 18.4356C15.4626 18.392 15.5311 18.3476 15.5986 18.3019C15.674 18.2511 15.7483 18.1982 15.8223 18.1454C15.8888 18.0977 15.955 18.0502 16.0199 18.0024C16.0915 17.9473 16.1648 17.8902 16.2365 17.8329C16.3002 17.7822 16.3637 17.7317 16.4264 17.6795C16.4978 17.6202 16.5662 17.5588 16.6355 17.4973C16.6962 17.4434 16.7573 17.39 16.8166 17.3347C16.8849 17.271 16.9514 17.205 17.0179 17.1395C17.0755 17.0826 17.1338 17.0266 17.1901 16.9683C17.2006 16.9575 17.2105 16.9458 17.2214 16.9346C16.4417 16.532 15.6206 16.2159 14.7722 15.9922C14.331 17.3992 13.5458 18.6744 12.4878 19.7016C12.5168 19.6941 12.5457 19.688 12.5747 19.6805C12.6512 19.6591 12.7262 19.6355 12.8009 19.6133Z" fill="currentColor"/>
<path d="M20.0001 10.3658H15.7144C15.6981 12.0392 15.4554 13.7026 14.9927 15.3109C15.9362 15.5629 16.8467 15.9252 17.7054 16.3904C19.1152 14.6911 19.9223 12.5725 20.0001 10.3658Z" fill="currentColor"/>
<path d="M10.3574 9.65088H14.9994C14.9812 8.03666 14.7444 6.43238 14.2957 4.88168C13.0031 5.17646 11.683 5.33389 10.3574 5.35134V9.65088Z" fill="currentColor"/>
<path d="M10.3574 0.0281677V4.63627C11.607 4.61864 12.8516 4.47221 14.0712 4.19907C13.2276 1.8417 11.8868 0.245457 10.3574 0.0281677Z" fill="currentColor"/>
<path d="M10.3574 14.6653C11.683 14.6829 13.0031 14.8404 14.2957 15.1352C14.7444 13.5845 14.9812 11.98 14.9994 10.3658H10.3574V14.6653Z" fill="currentColor"/>
<path d="M17.7054 3.62619C16.8467 4.09131 15.9362 4.45363 14.9927 4.70566C15.4554 6.31395 15.6981 7.97739 15.7144 9.65078H20.0001C19.9221 7.4442 19.1151 5.32558 17.7054 3.62619Z" fill="currentColor"/>
<path d="M17.2222 3.08396C17.2118 3.07331 17.2018 3.06179 17.1915 3.0508C17.135 2.99251 17.0763 2.93631 17.0187 2.87959C16.9524 2.81414 16.8863 2.74799 16.8179 2.68446C16.7587 2.62931 16.6974 2.57713 16.6367 2.52215C16.5674 2.46071 16.4981 2.39876 16.4269 2.33942C16.3651 2.28723 16.3018 2.23732 16.2389 2.18723C16.1674 2.12928 16.0941 2.07169 16.0204 2.01636C15.9558 1.96767 15.8904 1.92055 15.8246 1.87342C15.7499 1.81967 15.6749 1.76609 15.5988 1.71495C15.5319 1.66992 15.464 1.62594 15.3961 1.58283C15.3188 1.53309 15.2417 1.4844 15.163 1.43727C15.094 1.39591 15.0244 1.35507 14.9546 1.31545C14.8746 1.26972 14.7945 1.22539 14.7137 1.18211C14.6422 1.14633 14.5708 1.10741 14.4992 1.07163C14.417 1.0301 14.3341 0.990128 14.2491 0.950859C14.1776 0.916826 14.105 0.883665 14.0313 0.851377C13.9467 0.813854 13.8611 0.779995 13.7758 0.744216C13.7021 0.714197 13.6288 0.684527 13.5545 0.656253C13.4677 0.623093 13.3798 0.592027 13.2918 0.561658C13.2175 0.535479 13.1431 0.509474 13.0677 0.48504C12.9784 0.456068 12.889 0.429714 12.7972 0.403186C12.7229 0.381369 12.6482 0.359204 12.5729 0.339308C12.5441 0.331454 12.5148 0.325345 12.4858 0.317841C13.5438 1.34512 14.3289 2.62006 14.7703 4.02729C15.6195 3.80354 16.4419 3.4873 17.2222 3.08396Z" fill="currentColor"/>
<path d="M0 9.65078H4.28575C4.30198 7.97739 4.54475 6.31395 5.00725 4.70566C4.06392 4.45381 3.1534 4.09149 2.29471 3.62619C0.884865 5.32541 0.0778402 7.4442 0 9.65078Z" fill="currentColor"/>
<path d="M9.64252 19.9881V15.38C8.39289 15.3976 7.14832 15.544 5.92871 15.8172C6.77221 18.1745 8.11312 19.7708 9.64252 19.9881Z" fill="currentColor"/>
<path d="M9.64246 10.3658H5.00049C5.01864 11.98 5.2553 13.5845 5.70419 15.1352C6.99676 14.8402 8.31673 14.6828 9.64246 14.6653V10.3658Z" fill="currentColor"/>
<path d="M9.64252 0.0281677C8.11312 0.245457 6.77221 1.8417 5.92871 4.19907C7.14832 4.47239 8.39289 4.61882 9.64252 4.63627V0.0281677Z" fill="currentColor"/>
<path d="M9.64246 5.35134C8.3169 5.33389 6.99676 5.17646 5.70419 4.88168C5.2553 6.43238 5.01864 8.03666 5.00049 9.65088H9.64246V5.35134Z" fill="currentColor"/>
<path d="M7.51136 0.317474C7.48239 0.324979 7.45342 0.331088 7.42445 0.338592C7.3487 0.358838 7.274 0.381352 7.1986 0.403168C7.1089 0.429348 7.01989 0.455702 6.92983 0.484325C6.85391 0.508933 6.77921 0.535113 6.70451 0.561118C6.61707 0.592009 6.52946 0.622726 6.44289 0.655538C6.36819 0.684161 6.29454 0.713831 6.22054 0.744199C6.13554 0.779978 6.05037 0.815756 5.96642 0.85136C5.89277 0.883648 5.81999 0.917507 5.74704 0.95154C5.66449 0.99046 5.58228 1.03008 5.50078 1.07127C5.42922 1.10774 5.35766 1.14509 5.28628 1.18314C5.20617 1.22607 5.12676 1.27006 5.04787 1.31508C4.97631 1.35505 4.90598 1.39607 4.83704 1.43795C4.75937 1.48473 4.68258 1.53307 4.60614 1.58089C4.53737 1.62487 4.46913 1.66921 4.40159 1.71493C4.32619 1.76572 4.25184 1.8186 4.17784 1.87148C4.11134 1.91913 4.0452 1.9666 3.9801 2.0146C3.90697 2.06958 3.83716 2.12682 3.76351 2.18389C3.69998 2.23468 3.63592 2.28512 3.57379 2.33765C3.50223 2.39664 3.43434 2.45773 3.3654 2.51882C3.30432 2.57327 3.24271 2.62615 3.18302 2.68252C3.11513 2.74588 3.04898 2.81168 2.98266 2.87695C2.92506 2.93385 2.86642 2.99004 2.80987 3.04851C2.79958 3.05933 2.78963 3.0712 2.77881 3.0822C3.55826 3.48501 4.3796 3.80108 5.22799 4.02483C5.6692 2.61847 6.45388 1.34423 7.51136 0.317474Z" fill="currentColor"/>
<path d="M2.98081 17.137C3.0473 17.2024 3.11345 17.2686 3.18169 17.3323C3.24103 17.3873 3.30212 17.4395 3.36303 17.4944C3.43232 17.556 3.5016 17.6178 3.57281 17.6772C3.6346 17.729 3.6976 17.7791 3.76078 17.8294C3.83234 17.8873 3.90372 17.9449 3.97947 18.0006C4.04387 18.0489 4.10932 18.0957 4.17476 18.1437C4.24946 18.1973 4.32486 18.2508 4.40095 18.3023C4.4678 18.3474 4.53569 18.3913 4.60358 18.4346C4.6809 18.4842 4.75804 18.5329 4.83676 18.58C4.90569 18.6215 4.97533 18.6622 5.04514 18.702C5.12508 18.7477 5.20519 18.7921 5.28599 18.8352C5.35738 18.8709 5.42893 18.9099 5.50049 18.9456C5.58269 18.9872 5.6656 19.0271 5.75059 19.0666C5.82215 19.1003 5.89475 19.1334 5.9684 19.1659C6.05305 19.2034 6.1384 19.2373 6.22392 19.2731C6.29757 19.3031 6.37087 19.3327 6.44522 19.361C6.53196 19.3944 6.61992 19.4254 6.70789 19.4558C6.78224 19.4818 6.85659 19.508 6.93198 19.5322C7.02134 19.5612 7.1107 19.5877 7.2025 19.6141C7.27685 19.6359 7.35155 19.6581 7.4266 19.6781C7.45557 19.686 7.48489 19.6921 7.51386 19.6996C6.45587 18.6722 5.67083 17.3972 5.22945 15.99C4.38106 16.2139 3.55972 16.53 2.78027 16.933C2.79075 16.9436 2.80069 16.9551 2.81117 16.9661C2.86475 17.0241 2.92251 17.0803 2.98081 17.137Z" fill="currentColor"/>
<path d="M2.29471 16.3904C3.1534 15.9252 4.06392 15.5629 5.00725 15.3109C4.54475 13.7026 4.30198 12.0392 4.28575 10.3658H0C0.0780147 12.5724 0.884865 14.691 2.29471 16.3904Z" fill="currentColor"/>
</g>
<defs>
<clipPath id="clip0_737_4127">
<rect width="20" height="20" fill="currentColor"/>
</clipPath>
</defs>
</svg>
