<svg width="48" height="48" viewBox="0 0 48 48" fill="none" xmlns="http://www.w3.org/2000/svg">
<g clip-path="url(#clip0_0_5600)">
<path d="M22.1529 32.5562C22.5187 32.1896 22.5187 31.5964 22.1529 31.2298C21.7867 30.8643 21.1934 30.8643 20.8268 31.2298C20.4614 31.5964 20.4614 32.1896 20.8268 32.5562C21.1934 32.9217 21.7867 32.9217 22.1529 32.5562Z" fill="#0F97AA"/>
<path d="M17.7139 10.3096C17.7139 15.9943 22.3387 20.6195 28.0234 20.6195C33.7081 20.6195 38.333 15.9943 38.333 10.3096C38.333 4.62488 33.7081 0 28.0234 0C22.3387 0 17.7139 4.62488 17.7139 10.3096ZM36.4587 10.3096C36.4587 14.9608 32.6747 18.7449 28.0234 18.7449C23.3722 18.7449 19.5881 14.9608 19.5881 10.3096C19.5881 5.65869 23.3722 1.87463 28.0234 1.87463C32.6747 1.87463 36.4587 5.65869 36.4587 10.3096Z" fill="#0F97AA"/>
<path d="M10.8892 47.7228C11.2525 48.089 11.8439 48.093 12.2119 47.7305L16.7559 43.2539C17.5279 42.4819 17.7626 41.339 17.4231 40.3454L18.4006 39.4028C18.9268 38.8945 19.6197 38.6144 20.3521 38.6144H32.8117C35.0221 38.6144 37.1114 37.7655 38.6952 36.2241C38.7604 36.1607 38.2005 36.8203 47.1954 26.0698C48.5295 24.4914 48.3299 22.1213 46.75 20.7857C45.1801 19.4626 42.8283 19.6527 41.4905 21.204L35.96 26.8883C35.2616 26.0288 34.1967 25.493 33.0461 25.493H22.5948C21.1076 24.8708 19.5296 24.5559 17.9014 24.5559C13.3882 24.5559 9.44742 26.6404 7.33255 30.5486C6.44156 30.3797 5.50186 30.6493 4.82584 31.3253L0.367219 35.7971C0.00320491 36.1622 0.00247253 36.7529 0.365754 37.1191L10.8892 47.7228ZM17.901 26.4302C19.3366 26.4302 20.7245 26.7191 22.0271 27.2889C22.1458 27.3409 22.2736 27.3677 22.4029 27.3677H33.0461C34.0623 27.3677 34.9207 28.1964 34.9207 29.2419C34.9207 30.2757 34.0799 31.1166 33.0461 31.1166H25.3992C24.8818 31.1166 24.4621 31.5362 24.4621 32.0537C24.4621 32.5715 24.8818 32.9908 25.3992 32.9908H33.0461C35.1133 32.9908 36.795 31.3092 36.795 29.2419C36.795 29.0771 36.7832 28.9138 36.762 28.7519C42.112 23.2525 42.8664 22.4798 42.8986 22.4414C43.5666 21.6529 44.7524 21.553 45.5412 22.218C46.3307 22.8856 46.4307 24.0707 45.7609 24.8635L37.3545 34.9131C36.127 36.0915 34.5153 36.7401 32.8117 36.7401H20.3521C19.1311 36.7401 17.9754 37.207 17.0987 38.0541L16.3022 38.8227L8.95963 31.4806C10.6757 28.2612 13.8958 26.4302 17.901 26.4302ZM6.15226 32.6499C6.46134 32.3408 6.93595 32.2851 7.31278 32.518C7.47501 32.6169 7.00919 32.1929 15.4306 40.6025C15.8052 40.9772 15.7851 41.5741 15.4357 41.9234L11.5619 45.7397L2.35282 36.4603L6.15226 32.6499Z" fill="#0F97AA"/>
<path d="M26.8984 4.6864V5.78467C25.8075 6.17139 25.0238 7.21326 25.0238 8.4353C25.0238 9.98548 26.285 11.2471 27.8355 11.2471C28.3523 11.2471 28.7727 11.6675 28.7727 12.1842C28.7727 12.7009 28.3523 13.1213 27.8355 13.1213C27.4353 13.1213 27.0028 12.8698 26.6186 12.4124C26.2854 12.0161 25.6943 11.9652 25.2981 12.2981C24.9018 12.6314 24.8506 13.2224 25.1838 13.6187C25.6848 14.2145 26.274 14.6298 26.8984 14.8392V15.9331C26.8984 16.4509 27.3181 16.8702 27.8355 16.8702C28.353 16.8702 28.7727 16.4509 28.7727 15.9331V14.8348C29.8636 14.4478 30.6473 13.4059 30.6473 12.1842C30.6473 10.6337 29.3861 9.37244 27.8355 9.37244C27.3188 9.37244 26.8984 8.95203 26.8984 8.4353C26.8984 7.91858 27.3188 7.4978 27.8355 7.4978C28.1677 7.4978 28.5182 7.66736 28.8492 7.98779C29.2213 8.34778 29.8146 8.33789 30.1745 7.96619C30.5345 7.59412 30.5246 7.00086 30.1529 6.64087C29.6772 6.18054 29.2012 5.92017 28.7727 5.77808V4.6864C28.7727 4.16858 28.353 3.7489 27.8355 3.7489C27.3181 3.7489 26.8984 4.16858 26.8984 4.6864Z" fill="#0F97AA"/>
</g>
<defs>
<clipPath id="clip0_0_5600">
<rect width="47.9063" height="48" fill="white" transform="translate(0.046875)"/>
</clipPath>
</defs>
</svg>
