<svg width="32" height="32" viewBox="0 0 32 32" fill="none" xmlns="http://www.w3.org/2000/svg">
<g clip-path="url(#clip0_0_2615)">
<path d="M14.7656 21.7041C15.01 21.4597 15.01 21.0642 14.7656 20.8198C14.521 20.5762 14.1247 20.5762 13.8799 20.8198C13.6357 21.0642 13.6357 21.4597 13.8799 21.7041C14.1247 21.9478 14.521 21.9478 14.7656 21.7041Z" fill="#063C43"/>
<path d="M11.8008 6.87305C11.8008 10.6628 14.8901 13.7463 18.6873 13.7463C22.4845 13.7463 25.5738 10.6628 25.5738 6.87305C25.5738 3.08325 22.4845 0 18.6873 0C14.8901 0 11.8008 3.08325 11.8008 6.87305V6.87305ZM24.3218 6.87305C24.3218 9.97388 21.7942 12.4966 18.6873 12.4966C15.5804 12.4966 13.0527 9.97388 13.0527 6.87305C13.0527 3.77246 15.5804 1.24976 18.6873 1.24976C21.7942 1.24976 24.3218 3.77246 24.3218 6.87305Z" fill="#063C43"/>
<path d="M7.24229 31.8152C7.48496 32.0593 7.88001 32.062 8.12586 31.8203L11.1611 28.8359C11.6767 28.3213 11.8335 27.5593 11.6068 26.897L12.2597 26.2686C12.6112 25.9297 13.074 25.7429 13.5632 25.7429H21.8859C23.3624 25.7429 24.7579 25.177 25.8159 24.1494C25.8595 24.1072 25.4854 24.5469 31.4938 17.3799C32.3849 16.3276 32.2516 14.7476 31.1963 13.8572C30.1476 12.9751 28.5767 13.1018 27.6831 14.136L23.9889 17.9255C23.5224 17.3525 22.811 16.9954 22.0424 16.9954H15.0613C14.0679 16.5806 13.0138 16.3706 11.9262 16.3706C8.91157 16.3706 6.27923 17.7603 4.86656 20.3657C4.2714 20.2532 3.64371 20.4329 3.19215 20.8836L0.213919 23.8648C-0.0292315 24.1082 -0.0297207 24.502 0.212941 24.7461L7.24229 31.8152ZM11.926 17.6201C12.8849 17.6201 13.812 17.8128 14.6821 18.1926C14.7614 18.2273 14.8467 18.2451 14.9331 18.2451H22.0424C22.7213 18.2451 23.2946 18.7976 23.2946 19.4946C23.2946 20.1838 22.733 20.7444 22.0424 20.7444H16.9346C16.5889 20.7444 16.3086 21.0242 16.3086 21.3691C16.3086 21.7144 16.5889 21.9939 16.9346 21.9939H22.0424C23.4233 21.9939 24.5466 20.8728 24.5466 19.4946C24.5466 19.3848 24.5388 19.2759 24.5246 19.168C28.0982 15.5017 28.6021 14.9866 28.6237 14.9609C29.0698 14.4353 29.8619 14.3687 30.3888 14.812C30.9162 15.2571 30.983 16.0471 30.5356 16.5757L24.9204 23.2754C24.1004 24.061 23.0239 24.4934 21.8859 24.4934H13.5632C12.7477 24.4934 11.9757 24.8047 11.39 25.3694L10.858 25.8818L5.9534 20.9871C7.09968 18.8408 9.25061 17.6201 11.926 17.6201V17.6201ZM4.07816 21.7666C4.28461 21.5606 4.60164 21.5234 4.85335 21.6787C4.96172 21.7446 4.65056 21.4619 10.2758 27.0684C10.5261 27.3181 10.5126 27.7161 10.2792 27.949L7.69166 30.4932L1.54024 24.3069L4.07816 21.7666Z" fill="#063C43"/>
<path d="M17.9363 3.12421V3.85638C17.2075 4.1142 16.6841 4.80878 16.6841 5.62348C16.6841 6.65692 17.5265 7.49799 18.5622 7.49799C18.9074 7.49799 19.1882 7.77826 19.1882 8.12274C19.1882 8.46723 18.9074 8.7475 18.5622 8.7475C18.2949 8.7475 18.006 8.57978 17.7494 8.27484C17.5268 8.01068 17.132 7.97675 16.8673 8.19867C16.6026 8.42084 16.5684 8.81488 16.791 9.07904C17.1256 9.47626 17.5192 9.75312 17.9363 9.89276V10.622C17.9363 10.9672 18.2166 11.2468 18.5622 11.2468C18.9079 11.2468 19.1882 10.9672 19.1882 10.622V9.88983C19.9169 9.63178 20.4404 8.9372 20.4404 8.12274C20.4404 7.08905 19.598 6.24823 18.5622 6.24823C18.2171 6.24823 17.9363 5.96796 17.9363 5.62348C17.9363 5.27899 18.2171 4.99848 18.5622 4.99848C18.7841 4.99848 19.0182 5.11151 19.2393 5.32514C19.4879 5.56513 19.8842 5.55853 20.1246 5.31073C20.3651 5.06268 20.3585 4.66718 20.1102 4.42719C19.7924 4.1203 19.4744 3.94672 19.1882 3.85199V3.12421C19.1882 2.77899 18.9079 2.49921 18.5622 2.49921C18.2166 2.49921 17.9363 2.77899 17.9363 3.12421V3.12421Z" fill="#063C43"/>
</g>
<defs>
<clipPath id="clip0_0_2615">
<rect width="32" height="32" fill="white"/>
</clipPath>
</defs>
</svg>
