<svg width="22" height="22" viewBox="0 0 22 22" fill="none" xmlns="http://www.w3.org/2000/svg">
<g clip-path="url(#clip0_743_6125)">
<path d="M10.3651 16.28C10.1996 16.1586 9.9668 16.194 9.8452 16.3596L9.79926 16.4221C9.67779 16.5875 9.71315 16.82 9.87841 16.9418C9.9448 16.9907 10.0221 17.0144 10.0988 17.0144C10.2128 17.0144 10.3253 16.9621 10.3982 16.8634L10.4448 16.8C10.5663 16.6344 10.5307 16.4016 10.3651 16.28Z" fill="#063C43"/>
<path d="M10.4618 19.8186L9.50521 18.0792L10.3984 16.8627C10.52 16.6972 10.4843 16.4644 10.3187 16.3428C10.1531 16.2211 9.92033 16.2568 9.79877 16.4225L8.76502 17.8303C8.6793 17.9471 8.66916 18.1029 8.7389 18.2297L9.81003 20.1771V20.1771C9.87779 20.3002 10.005 20.3699 10.1363 20.3699C10.1969 20.3698 10.2584 20.355 10.3152 20.3237C10.4952 20.2248 10.5608 19.9986 10.4618 19.8186Z" fill="#063C43"/>
<path d="M13.2341 17.8303L12.2045 16.4282C12.1191 16.3119 11.9745 16.2554 11.8329 16.2834C11.6914 16.3112 11.5788 16.4184 11.5438 16.5583C11.517 16.6657 11.5394 16.7794 11.6049 16.8686L12.4937 18.0792L11.5436 19.8068C11.5134 19.8617 11.4976 19.9236 11.4976 19.9863C11.4976 20.156 11.6125 20.3043 11.777 20.3465C11.8078 20.3545 11.8389 20.3583 11.8695 20.3583C12.0027 20.3583 12.1289 20.2864 12.1955 20.1656L13.2601 18.2298C13.33 18.1028 13.3197 17.947 13.2341 17.8303Z" fill="#063C43"/>
<path d="M13.8233 11.985C13.701 11.9208 13.5531 11.9295 13.4393 12.008C13.218 12.1604 13.0127 12.3219 12.8291 12.4879C11.8281 13.3928 10.877 13.2703 10.8398 13.265C10.8174 13.2615 10.7945 13.2598 10.772 13.2606C10.3764 13.2707 9.66309 12.9092 8.90851 12.3166C8.7931 12.226 8.67476 12.1396 8.5566 12.0599C8.44264 11.9829 8.29539 11.9751 8.17396 12.0397C8.05249 12.1042 7.97656 12.2305 7.97656 12.3681V13.6441C7.97656 13.757 8.02791 13.8636 8.11591 13.9342C8.12631 13.9426 8.13714 13.9504 8.14831 13.9575L10.7858 15.7199C10.7862 15.7202 10.7866 15.7205 10.787 15.7208L10.794 15.7254C10.8561 15.7665 10.9276 15.7873 10.9994 15.7873C11.0598 15.7873 11.1202 15.7726 11.1755 15.7431C11.1871 15.7369 11.1983 15.73 11.209 15.7227C11.2103 15.7219 11.2115 15.7211 11.2128 15.7202C11.2143 15.7193 11.2157 15.7183 11.2172 15.7173L13.8484 13.9591C13.859 13.9524 13.8693 13.9452 13.8792 13.9374C13.9695 13.867 14.0223 13.7588 14.0223 13.6442V12.3143C14.0223 12.176 13.9457 12.0493 13.8233 11.985ZM13.2783 13.4452L10.9994 14.968L8.72048 13.4451V13.1068C9.27538 13.5101 10.0917 14.0047 10.757 14.0047C10.7584 14.0047 10.76 14.0047 10.7614 14.0047C10.9848 14.0294 12.124 14.0965 13.2784 13.0838V13.4452H13.2783Z" fill="#063C43"/>
<path d="M11.3663 15.3545C11.3418 15.207 11.2312 15.0886 11.0857 15.0539C10.9401 15.0193 10.7881 15.075 10.6996 15.1956L9.84464 16.3601C9.72304 16.5257 9.7587 16.7585 9.92435 16.88C9.99065 16.9288 10.0677 16.9522 10.1442 16.9522C10.2586 16.9522 10.3714 16.8996 10.4444 16.8003L11.2948 15.6419C11.3432 15.5787 11.3714 15.5 11.3714 15.4158C11.3714 15.3954 11.3697 15.3747 11.3663 15.3545Z" fill="#063C43"/>
<path d="M16.6667 3.36306C16.6593 3.3048 16.4851 2.04727 15.3014 1.5512C15.3357 1.33034 15.3321 1.04648 15.1919 0.770324C15.0035 0.399159 14.6316 0.157288 14.0865 0.0513267C14.0631 0.046772 14.0394 0.0444946 14.0156 0.0444946H9.02314C6.99595 0.0444946 5.34668 1.69372 5.34668 3.72099V5.67999C5.34668 6.19037 5.52066 6.68808 5.83648 7.08133C5.99306 7.27632 6.1859 7.61685 6.21499 8.1317C6.22634 8.33271 6.3946 8.48804 6.59686 8.48246C6.79812 8.47679 6.95831 8.31196 6.95831 8.11065V5.55658C7.21088 4.51205 8.07288 4.30876 8.22108 4.28131H9.83593C10.0259 4.28131 10.2127 4.2523 10.3912 4.19507C10.6983 4.09658 11.1854 3.91534 11.5401 3.78063C11.7774 3.69044 12.0401 3.68713 12.2797 3.77135L14.0085 4.37825C14.8728 4.69707 15.027 5.45582 15.0462 5.57501V8.64028C15.0462 8.83497 15.1963 8.99649 15.3904 9.01097C15.3998 9.01166 15.4091 9.01205 15.4184 9.01205C15.6008 9.012 15.7584 8.87833 15.786 8.69515C15.7875 8.68557 15.936 7.72621 16.4149 6.95809C16.5815 6.6907 16.6697 6.38584 16.6697 6.07646V3.41003C16.6697 3.39434 16.6687 3.37866 16.6667 3.36306ZM15.9257 6.07629C15.9257 6.24245 15.8788 6.40728 15.79 6.55384V5.54958C15.79 5.53613 15.7893 5.52276 15.7878 5.5094C15.782 5.45539 15.6283 4.18067 14.2625 3.67897C14.2609 3.67837 14.2592 3.67777 14.2575 3.67717L12.5261 3.06933C12.3309 3.00079 12.1266 2.96659 11.9225 2.96659C11.7031 2.96659 11.4837 3.00616 11.2759 3.08523C10.7793 3.27386 10.3948 3.41269 10.164 3.48669C10.059 3.52033 9.94864 3.53743 9.83589 3.53743H8.191C8.17506 3.53743 8.15908 3.53846 8.14322 3.54048C8.08027 3.54865 6.59669 3.75962 6.22333 5.43304C6.2174 5.45964 6.21439 5.4868 6.21439 5.51404V6.27957C6.1334 6.0924 6.09051 5.88796 6.09051 5.68003V3.72108C6.09051 2.10408 7.40609 0.7885 9.02305 0.7885H13.978C14.1831 0.832199 14.4324 0.921875 14.527 1.10432C14.6428 1.32763 14.5109 1.63511 14.5108 1.63537C14.4632 1.73656 14.4638 1.85374 14.5121 1.9545C14.5605 2.05526 14.6517 2.12891 14.7604 2.15508C15.7073 2.38303 15.9005 3.29126 15.9256 3.43817V6.07629H15.9257Z" fill="#063C43"/>
<path d="M15.7879 5.50915C15.782 5.45514 15.6283 4.18043 14.2626 3.67873C14.2609 3.67812 14.2592 3.67752 14.2575 3.67692L12.5261 3.06908C12.1209 2.92686 11.6769 2.93253 11.2758 3.0849C10.7793 3.27353 10.3948 3.41236 10.164 3.4864C10.059 3.52004 9.94861 3.5371 9.83586 3.5371H8.19097C8.17502 3.5371 8.15904 3.53813 8.14318 3.54015C8.08023 3.54831 6.59665 3.75929 6.22329 5.43271C6.21736 5.45931 6.21436 5.48647 6.21436 5.51371V8.71128C6.21436 8.71403 6.2144 8.71678 6.21444 8.71953C6.21689 8.8306 6.29548 11.4537 8.10791 12.6534L8.11727 12.66C8.12505 12.6655 8.13283 12.671 8.14095 12.6764C8.24429 12.7462 8.34806 12.822 8.44955 12.9016C8.97755 13.3162 9.97258 14.0047 10.7575 14.0047C10.759 14.0047 10.7604 14.0047 10.7619 14.0047C10.8045 14.0093 10.8806 14.0156 10.9838 14.0156C11.4287 14.0156 12.3778 13.899 13.3284 13.0397C13.488 12.8955 13.6673 12.7545 13.8618 12.6205L13.8896 12.601C13.8987 12.5946 13.9078 12.5882 13.9171 12.5819C14.5217 12.1759 15.5688 11.1281 15.7886 8.67312C15.7896 8.66212 15.7901 8.65099 15.7901 8.63991V5.54933C15.7901 5.53592 15.7893 5.52256 15.7879 5.50915ZM15.0461 8.62311C14.8434 10.8387 13.8994 11.6976 13.5023 11.9643C13.4882 11.9738 13.4743 11.9836 13.4604 11.9934L13.4397 12.0079C13.2185 12.1603 13.0132 12.3218 12.8295 12.4878C11.8323 13.3893 10.8843 13.2711 10.8378 13.2646C10.8162 13.2613 10.7943 13.26 10.7724 13.2606C10.3768 13.2707 9.66355 12.9092 8.90898 12.3166C8.79356 12.2259 8.67522 12.1395 8.55723 12.0599L8.54808 12.0535C8.53914 12.0471 8.53025 12.0408 8.51976 12.0338C7.05719 11.0658 6.9615 8.80044 6.95827 8.70591V5.55629C7.21175 4.50794 8.07907 4.30697 8.22044 4.28102H9.8359C10.0259 4.28102 10.2127 4.25202 10.3912 4.19478C10.6982 4.0963 11.1854 3.91505 11.54 3.78035C11.7773 3.69015 12.04 3.68685 12.2797 3.77107L14.0085 4.37796C14.8728 4.69679 15.027 5.45553 15.0461 5.57472V8.62311H15.0461Z" fill="#063C43"/>
<path d="M11.3325 15.2494C11.2746 15.1334 11.1604 15.056 11.0313 15.045C10.9024 15.0344 10.7767 15.0911 10.7 15.1956L9.80897 16.4091C9.6875 16.5746 9.72299 16.8072 9.88838 16.9289C9.95472 16.9777 10.0319 17.0013 10.1085 17.0013C10.2226 17.0013 10.3353 16.9489 10.4082 16.8499L11.2992 15.6409C11.3464 15.5769 11.3718 15.4952 11.3718 15.4158C11.3718 15.3581 11.3583 15.301 11.3325 15.2494Z" fill="#063C43"/>
<path d="M11.3557 21.2383C11.2159 21.0921 10.9851 21.0843 10.8359 21.2209L10.7508 21.2986C10.6235 21.415 10.593 21.6037 10.6771 21.7544L10.6797 21.7591C10.7365 21.8609 10.8378 21.9301 10.9533 21.9462C10.9704 21.9485 10.9875 21.9497 11.0045 21.9497C11.1024 21.9497 11.1973 21.911 11.2675 21.8407L11.3499 21.7583C11.4929 21.6153 11.4954 21.3843 11.3557 21.2383Z" fill="#063C43"/>
<path d="M11.2486 21.2986L11.1635 21.2208C11.0143 21.0844 10.7834 21.0921 10.6437 21.2382C10.5039 21.3844 10.5065 21.6154 10.6495 21.7584L10.732 21.8408C10.8022 21.9111 10.897 21.9497 10.995 21.9497C11.0125 21.9497 11.03 21.9485 11.0476 21.946C11.1634 21.9295 11.2648 21.8593 11.3211 21.7567L11.3237 21.752C11.4061 21.6016 11.3751 21.4143 11.2486 21.2986Z" fill="#063C43"/>
<path d="M11.2545 21.3042L11.254 21.3038C11.1966 21.2501 11.1223 21.2147 11.0404 21.2057C10.9308 21.1938 10.824 21.2309 10.7464 21.3032L10.7453 21.3042C10.6701 21.3728 10.6263 21.4693 10.6241 21.571C10.6219 21.6729 10.6615 21.771 10.7337 21.8428L10.7376 21.8467C10.8102 21.9188 10.905 21.9549 10.9999 21.9549C11.0951 21.9549 11.1903 21.9185 11.2628 21.846L11.2667 21.8421C11.3386 21.7702 11.3779 21.6721 11.3756 21.5705C11.3734 21.4689 11.3296 21.3727 11.2545 21.3042Z" fill="#063C43"/>
<path d="M11.1206 15.0555C10.9666 15.0061 10.7976 15.0633 10.7038 15.1952C10.5988 15.343 10.6161 15.5443 10.744 15.6727C10.8159 15.745 10.9114 15.782 11.0076 15.782C11.0823 15.782 11.1574 15.7597 11.2222 15.714C11.3212 15.6444 11.3801 15.5309 11.3801 15.4099V15.409C11.3801 15.2471 11.2749 15.1047 11.1206 15.0555Z" fill="#063C43"/>
<path d="M11.3026 15.1921L11.2995 15.1878C11.204 15.0587 11.0365 15.0055 10.884 15.0557C10.7315 15.1059 10.6284 15.2484 10.6284 15.4089V15.4153C10.6284 15.5522 10.7053 15.6771 10.8259 15.7419C10.8806 15.7712 10.9409 15.7857 11.0012 15.7857C11.0738 15.7857 11.1464 15.7646 11.2088 15.7233C11.2938 15.667 11.3521 15.5782 11.3698 15.4778C11.3876 15.3774 11.3633 15.2741 11.3026 15.1921Z" fill="#063C43"/>
<path d="M21.9811 20.3738L21.5013 17.4763C21.3501 16.5631 20.7155 15.8002 19.8451 15.4854L15.203 13.8059C15.0599 13.7542 14.8999 13.7948 14.7987 13.9083C14.6976 14.0219 14.6757 14.1856 14.7436 14.3217L15.7128 16.2654L14.7618 16.28C14.6327 16.2821 14.5138 16.3508 14.4478 16.4619C14.3818 16.5729 14.3781 16.7101 14.438 16.8246L14.8281 17.5693L10.8361 21.2211C10.8321 21.2249 10.8281 21.2286 10.8242 21.2326L10.7417 21.315C10.625 21.4318 10.5992 21.6115 10.6785 21.7564L10.6814 21.7617C10.7466 21.881 10.8718 21.9552 11.0077 21.9552H20.6401C21.0403 21.9552 21.4181 21.7801 21.6768 21.475C21.9356 21.1698 22.0465 20.7684 21.9811 20.3738ZM21.1096 20.9939C20.9923 21.132 20.8212 21.2113 20.6401 21.2113H11.949L15.5417 17.9249C15.6663 17.8109 15.6985 17.6274 15.6201 17.4778L15.3774 17.0145L16.3153 17.0001C16.4431 16.9981 16.5609 16.9306 16.6274 16.8215C16.6937 16.7122 16.6995 16.5766 16.6424 16.4622L15.8244 14.8218L19.5922 16.1849C20.2099 16.4083 20.6602 16.9497 20.7675 17.5977L21.2474 20.4952C21.2474 20.4953 21.2474 20.4953 21.2474 20.4953C21.2769 20.674 21.2267 20.8557 21.1096 20.9939Z" fill="#063C43"/>
<path d="M11.2572 21.3076L11.2529 21.3036C11.1057 21.1704 10.8796 21.1763 10.7395 21.3171L10.7356 21.321C10.6297 21.4276 10.5983 21.5875 10.656 21.7262C10.7137 21.8649 10.8492 21.9553 10.9994 21.9553H11.0076C11.1613 21.9553 11.2993 21.8606 11.3546 21.7171C11.41 21.5735 11.3712 21.4108 11.2572 21.3076Z" fill="#063C43"/>
<path d="M11.2464 21.2967C11.162 21.2207 11.0475 21.1874 10.9353 21.2065C10.8233 21.2255 10.7261 21.2947 10.6715 21.3943L10.6689 21.399C10.5905 21.5419 10.6143 21.7193 10.7277 21.8365L10.729 21.8379C10.8019 21.9132 10.899 21.9512 10.9964 21.9512C11.086 21.9512 11.1758 21.919 11.247 21.854L11.2509 21.8505C11.2847 21.8197 11.3125 21.7828 11.333 21.7419C11.4079 21.5923 11.3708 21.4086 11.2464 21.2967Z" fill="#063C43"/>
<path d="M11.2622 21.3195L11.2607 21.3179C11.2597 21.3169 11.2587 21.3159 11.2577 21.315L11.1752 21.2326C11.1713 21.2286 11.1674 21.2248 11.1633 21.2212L7.17138 17.5694L7.56149 16.8246C7.62143 16.7102 7.6177 16.5729 7.55174 16.4619C7.48574 16.3509 7.36689 16.2821 7.23777 16.2801L6.28665 16.2654L7.25586 14.3218C7.32375 14.1857 7.30183 14.0219 7.20073 13.9083C7.09962 13.7948 6.93943 13.7542 6.79648 13.806L2.15442 15.4855C1.28405 15.8002 0.649397 16.5631 0.498189 17.4763L0.0183563 20.3738C-0.0469993 20.7686 0.0639463 21.1699 0.322705 21.4751C0.581506 21.7802 0.959417 21.9552 1.35946 21.9552H11C11.1507 21.9552 11.2864 21.8643 11.3438 21.7251C11.4013 21.5859 11.369 21.4257 11.2622 21.3195ZM1.3595 21.2113C1.17834 21.2113 1.00724 21.1321 0.890108 20.9939C0.772975 20.8558 0.722787 20.674 0.75235 20.4953L1.23218 17.5978C1.33948 16.9497 1.78983 16.4084 2.40751 16.1849L6.17523 14.8218L5.35728 16.4621C5.30021 16.5765 5.30589 16.7121 5.37236 16.8214C5.43875 16.9306 5.55661 16.9981 5.68444 17L6.62228 17.0145L6.37959 17.4778C6.30126 17.6274 6.33349 17.8109 6.45801 17.9249L10.0507 21.2113H1.3595Z" fill="#063C43"/>
</g>
<defs>
<clipPath id="clip0_743_6125">
<rect width="22" height="22" fill="white"/>
</clipPath>
</defs>
</svg>
