<svg width="22" height="22" viewBox="0 0 22 22" fill="none" xmlns="http://www.w3.org/2000/svg">
<path d="M21.5217 0H3.34783H0.478261C0.214261 0 0 0.214261 0 0.478261V3.34783V21.5217C0 21.7857 0.214261 22 0.478261 22H3.34783C3.61183 22 3.82609 21.7857 3.82609 21.5217V21.0435H17.6957C17.8224 21.0435 17.9443 20.9933 18.0338 20.9033L20.9033 18.0338C20.9933 17.9443 21.0435 17.8224 21.0435 17.6957V3.82609H21.5217C21.7857 3.82609 22 3.61183 22 3.34783V0.478261C22 0.214261 21.7857 0 21.5217 0ZM2.86957 21.0435H0.956522V3.82609H2.86957V21.0435ZM2.86957 2.86957H0.956522V0.956522H2.86957V2.86957ZM20.087 17.4977L17.4977 20.087H17.2174V17.2174H20.087V17.4977ZM20.087 16.2609H16.7391C16.4751 16.2609 16.2609 16.4751 16.2609 16.7391V20.087H3.82609V11.4783H6.21739C6.48139 11.4783 6.69565 11.264 6.69565 11C6.69565 10.736 6.48139 10.5217 6.21739 10.5217H3.82609V3.82609H10.5217V6.21739C10.5217 6.48139 10.736 6.69565 11 6.69565C11.264 6.69565 11.4783 6.48139 11.4783 6.21739V3.82609H20.087V16.2609ZM21.0435 2.86957H3.82609V0.956522H21.0435V2.86957Z" fill="#063C43"/>
<path d="M10.9997 8.6087C10.7357 8.6087 10.5214 8.82296 10.5214 9.08696V10.5217H9.08666C8.82266 10.5217 8.6084 10.736 8.6084 11C8.6084 11.264 8.82266 11.4783 9.08666 11.4783H10.9997C11.2637 11.4783 11.478 11.264 11.478 11V9.08696C11.478 8.82296 11.2637 8.6087 10.9997 8.6087Z" fill="#063C43"/>
</svg>
