<?xml version="1.0" encoding="utf-8"?>
<!-- Svg Vector Icons : http://www.onlinewebfonts.com/icon -->
<!DOCTYPE svg PUBLIC "-//W3C//DTD SVG 1.1//EN" "http://www.w3.org/Graphics/SVG/1.1/DTD/svg11.dtd">
<svg version="1.1" xmlns="http://www.w3.org/2000/svg" xmlns:xlink="http://www.w3.org/1999/xlink" x="0px" y="0px" viewBox="0 0 1000 1000" enable-background="new 0 0 1000 1000" xml:space="preserve">
<metadata> Svg Vector Icons : http://www.onlinewebfonts.com/icon </metadata>
<g><path d="M500,10.1C229.8,10.1,10,229.9,10,500c0,270.1,219.8,489.9,490,489.9c270.2,0,490-219.8,490-489.9C990,229.9,770.2,10.1,500,10.1z M500,941.7C256.4,941.7,58.2,743.5,58.2,500C58.2,256.5,256.4,58.3,500,58.3S941.8,256.5,941.8,500C941.8,743.5,743.6,941.7,500,941.7z"/><path d="M653.4,362.7L445.8,585l-98.7-112.3c-8.8-10-24-11-34-2.2c-10,8.8-11,24-2.2,34l116.3,132.3c4.5,5.1,10.9,8.1,17.7,8.2c0.1,0,0.2,0,0.4,0c6.7,0,13-2.8,17.6-7.7l225.7-241.8c9.1-9.7,8.6-25-1.2-34.1C677.7,352.4,662.5,352.9,653.4,362.7z"/></g>
</svg>