<svg width="24" height="24" viewBox="0 0 24 24" fill="none" xmlns="http://www.w3.org/2000/svg">
<path d="M22.7747 6.37631C22.5154 5.4124 21.7554 4.65256 20.7916 4.39301C19.0309 3.91125 11.988 3.91125 11.988 3.91125C11.988 3.91125 4.94536 3.91125 3.18466 4.37474C2.23943 4.63402 1.46091 5.41254 1.20163 6.37631C0.738281 8.13687 0.738281 11.788 0.738281 11.788C0.738281 11.788 0.738281 15.4576 1.20163 17.1998C1.46118 18.1635 2.22089 18.9234 3.1848 19.1829C4.9639 19.6648 11.9883 19.6648 11.9883 19.6648C11.9883 19.6648 19.0309 19.6648 20.7916 19.2013C21.7555 18.9419 22.5154 18.1821 22.7749 17.2183C23.2381 15.4576 23.2381 11.8066 23.2381 11.8066C23.2381 11.8066 23.2567 8.13687 22.7747 6.37631ZM9.7457 15.1611V8.41496L15.6022 11.788L9.7457 15.1611Z" fill="white"/>
</svg>
