<svg width="16" height="18" viewBox="0 0 16 18" fill="currentColor" xmlns="http://www.w3.org/2000/svg">
<path fill-rule="evenodd" clip-rule="evenodd" d="M0.916748 7.59821C0.916748 3.76499 4.11998 0.666748 7.99462 0.666748C11.8802 0.666748 15.0834 3.76499 15.0834 7.59821C15.0834 9.52982 14.3809 11.3231 13.2247 12.8431C11.9491 14.5197 10.3769 15.9805 8.6072 17.1271C8.20217 17.3921 7.83664 17.4121 7.39212 17.1271C5.61236 15.9805 4.04015 14.5197 2.7755 12.8431C1.6184 11.3231 0.916748 9.52982 0.916748 7.59821ZM5.66192 7.81404C5.66192 9.09817 6.70978 10.1081 7.9946 10.1081C9.28026 10.1081 10.3382 9.09817 10.3382 7.81404C10.3382 6.53991 9.28026 5.48077 7.9946 5.48077C6.70978 5.48077 5.66192 6.53991 5.66192 7.81404Z" fill="#c53030"/>
</svg>
